<svg xmlns="http://www.w3.org/2000/svg" viewBox="0 0 365.87 216.65"><defs><style>.cls-1{fill:#d6d6d6;}.cls-10,.cls-15,.cls-2{fill:#7eed9a;}.cls-11,.cls-3{fill:#5cb880;}.cls-4{fill:#7ab3de;}.cls-5{fill:#33313b;}.cls-13,.cls-6{fill:#fff;}.cls-12,.cls-7{fill:none;}.cls-10,.cls-11,.cls-12,.cls-13,.cls-15,.cls-16,.cls-7,.cls-9{stroke:#33313b;stroke-linecap:round;stroke-width:2px;}.cls-15,.cls-16,.cls-7{stroke-miterlimit:10;}.cls-8{fill:#f7d4a6;}.cls-14,.cls-16,.cls-9{fill:#ffa74a;}.cls-10,.cls-11,.cls-12,.cls-13,.cls-9{stroke-linejoin:round;}</style></defs><title>资源 1</title><g id="图层_2" data-name="图层 2"><g id="OBJECTS"><ellipse class="cls-1" cx="180.22" cy="189.96" rx="147.83" ry="6.42"/><path class="cls-2" d="M292.23,140.78c.24,2.66,4.06-42.9,17.6-58.27C310.2,83.89,308,122.85,292.23,140.78Z"/><path class="cls-2" d="M285.62,160.05c7.67-11,10.82-30.71,10.77-31.46l-1.48.1.74-.05h-.75c-.08,1.43-3.27,20.17-10.49,30.57Z"/><path class="cls-2" d="M279.09,158.81c12.69-17.82,34.79-27.09,36.3-26.45h0l.48.87-.88-.16,0,.7c-1.86.07-22.72,9.06-34.71,25.9ZM314.41,133a.68.68,0,0,0,.16.58l.39-.48Z"/><path class="cls-2" d="M281.83,160.21c9.42-11.88,18.93-24.18,28.25-36.56l-1.18-.89c-9.32,12.37-18.82,24.66-28.23,36.53Z"/><path class="cls-2" d="M306.09,127.34c-.48,1.72,36.31-53.45,59.26-41C364.87,88.63,341.51,112.66,306.09,127.34Z"/><path class="cls-3" d="M300.32,134s5.12-13,13.07-30.51c8-16.89,18.77-38.41,30.5-40.13C344,66.22,329.24,113.84,300.32,134Z"/><path class="cls-3" d="M298.92,142c-.5-1.09,48.56-39.08,66.95-14.29C365.68,129.23,340,129.05,298.92,142Z"/><path class="cls-2" d="M93.12,121.84c-.24,2.66-4.06-42.9-17.6-58.28C75.15,65,77.33,103.9,93.12,121.84Z"/><path class="cls-2" d="M99.72,141.1c-7.67-11-10.81-30.71-10.76-31.45l1.48.1-.74,0h.74c.09,1.42,3.28,20.17,10.5,30.57Z"/><path class="cls-2" d="M105.05,140.73c-12-16.84-32.85-25.83-34.71-25.9l0-.7-.88.16.47-.87h0c1.52-.64,23.62,8.63,36.31,26.45ZM70.39,114.12l.39.48a.69.69,0,0,0,.16-.58Z"/><path class="cls-2" d="M103.51,141.27c-9.41-11.88-18.92-24.18-28.25-36.56l1.19-.9c9.32,12.37,18.82,24.67,28.23,36.54Z"/><path class="cls-2" d="M79.25,108.4C79.74,110.11,43,55,20,67.41,20.48,69.68,43.84,93.71,79.25,108.4Z"/><path class="cls-3" d="M85,115.09s-5.11-13-13.06-30.52c-8-16.89-18.77-38.4-30.51-40.13C41.37,47.27,56.11,94.89,85,115.09Z"/><path class="cls-3" d="M86.43,123c.5-1.09-48.56-39.08-67-14.3C19.67,110.29,45.31,110.11,86.43,123Z"/><rect class="cls-4" x="67.17" y="11.67" width="234.88" height="166.73" rx="4.54" ry="4.54"/><path class="cls-5" d="M297.52,12.67a3.54,3.54,0,0,1,3.53,3.54V173.87a3.53,3.53,0,0,1-3.53,3.53H71.71a3.54,3.54,0,0,1-3.54-3.53V16.21a3.55,3.55,0,0,1,3.54-3.54H297.52m0-2H71.71a5.54,5.54,0,0,0-5.54,5.54V173.87a5.54,5.54,0,0,0,5.54,5.53H297.52a5.54,5.54,0,0,0,5.53-5.53V16.21a5.54,5.54,0,0,0-5.53-5.54Z"/><rect class="cls-6" x="78.28" y="26.54" width="212.66" height="131.33"/><path class="cls-5" d="M190,170.31h-9.42a2.69,2.69,0,0,1-2.69-2.69h0a2.7,2.7,0,0,1,2.69-2.69H190a2.7,2.7,0,0,1,2.7,2.69h0A2.69,2.69,0,0,1,190,170.31Z"/><path class="cls-4" d="M60.17,189a12.66,12.66,0,0,1-12.61-11.64H321.44A12.65,12.65,0,0,1,308.84,189Z"/><path class="cls-5" d="M320.31,178.32A11.66,11.66,0,0,1,308.84,188H60.17a11.68,11.68,0,0,1-11.48-9.64H320.31m2.17-2h-276A13.64,13.64,0,0,0,60.17,190H308.84a13.64,13.64,0,0,0,13.64-13.64Z"/><path class="cls-5" d="M166,177.33c0,2.61,3.14,4.72,7,4.72h24.55c3.87,0,7-2.11,7-4.72a3.45,3.45,0,0,0-.17-1H166.17A3.15,3.15,0,0,0,166,177.33Z"/><line class="cls-7" x1="78.35" y1="123.9" x2="78.35" y2="133.69"/><line class="cls-7" x1="78.35" y1="51.61" x2="78.35" y2="112.24"/><line class="cls-7" x1="261.73" y1="157.47" x2="271.53" y2="157.47"/><line class="cls-7" x1="189.45" y1="157.47" x2="250.07" y2="157.47"/><polyline class="cls-7" points="229.11 25.91 290.94 25.91 290.94 108.97"/><path class="cls-1" d="M344.89,204.54c0,2.45-27.95,4.52-62.46,4.62S220,207.35,220,204.89s28-4.52,62.46-4.62S344.88,202.08,344.89,204.54Z"/><path class="cls-8" d="M229.45,209.31h0l-11.28-6.69,10-9.13h.14l8.32,3.53.62,7.07-7.73,5.2Z"/><path class="cls-5" d="M228.4,194.62l7.27,3.09.52,5.88-6.77,4.56-9.62-5.71,8.6-7.82m-.18-2.15a1.12,1.12,0,0,0-.73.27l-11,10,12.44,7.38a1.12,1.12,0,0,0,.56.15,1.06,1.06,0,0,0,.62-.19l8.22-5.53-.73-8.25-8.87-3.77a1.1,1.1,0,0,0-.47-.1Z"/><path class="cls-9" d="M285.2,195.31c0,.17.09.56.13,1.08s.06.91.06,1.09c0,2.3-.45,5.75-3.4,7.3l58.28-5.15c3-1.54,3.44-5,3.4-7.3,0-.17,0-.56-.05-1.08s-.11-.91-.14-1.08c-.37-2.28-1.45-5.59-4.63-6.6l-58.28,5.15C283.74,189.72,284.83,193,285.2,195.31Z"/><path class="cls-5" d="M222.79,204.21c0-.29,0-1-.1-1.88s-.18-1.58-.23-1.87c-.1-.62-.24-1.28-.41-2l-4.67,4.32,5.35,3.42C222.78,205.54,222.8,204.85,222.79,204.21Z"/><rect class="cls-10" x="229.24" y="199.24" width="108.98" height="5.37" transform="translate(-16.66 25.74) rotate(-5.05)"/><rect class="cls-11" x="228.77" y="193.89" width="108.98" height="5.37" transform="translate(-16.19 25.67) rotate(-5.05)"/><rect class="cls-10" x="228.3" y="188.53" width="108.98" height="5.37" transform="translate(-15.72 25.61) rotate(-5.05)"/><rect class="cls-12" x="199.45" y="41.8" width="72.71" height="28.91" rx="2.34" ry="2.34"/><circle class="cls-2" cx="214.15" cy="56.26" r="8.53" transform="translate(22.94 167.91) rotate(-45)"/><polygon class="cls-13" points="211.52 51.8 211.52 60.71 218.66 56.26 211.52 51.8"/><line class="cls-12" x1="231.13" y1="52.44" x2="265.43" y2="52.44"/><line class="cls-12" x1="231.13" y1="61.85" x2="265.43" y2="61.85"/><line class="cls-12" x1="231.13" y1="57.15" x2="249.79" y2="57.15"/><rect class="cls-12" x="199.45" y="76.85" width="72.71" height="28.91" rx="2.34" ry="2.34"/><circle class="cls-2" cx="214.15" cy="91.3" r="8.53"/><polygon class="cls-13" points="211.52 86.85 211.52 95.75 218.66 91.3 211.52 86.85"/><line class="cls-12" x1="231.13" y1="87.49" x2="265.43" y2="87.49"/><line class="cls-12" x1="231.13" y1="96.9" x2="265.43" y2="96.9"/><line class="cls-12" x1="231.13" y1="92.19" x2="249.79" y2="92.19"/><rect class="cls-12" x="199.45" y="111.89" width="72.71" height="28.91" rx="2.34" ry="2.34"/><circle class="cls-2" cx="214.15" cy="126.35" r="8.53" transform="translate(-26.62 188.43) rotate(-45)"/><polygon class="cls-13" points="211.52 121.9 211.52 130.8 218.66 126.35 211.52 121.9"/><line class="cls-12" x1="231.13" y1="122.54" x2="265.43" y2="122.54"/><line class="cls-12" x1="231.13" y1="131.94" x2="265.43" y2="131.94"/><line class="cls-12" x1="231.13" y1="127.24" x2="249.79" y2="127.24"/><polygon class="cls-14" points="177.37 49.17 171.38 43.81 171.38 41.8 98.41 41.8 98.41 131.53 109.25 142.67 182.68 142.67 182.68 49.22 177.37 49.17"/><polygon class="cls-6" points="171.38 43.81 171.38 131.53 98.41 131.53 106.59 139.8 180.22 139.8 180.22 51.72 171.38 43.81"/><polygon class="cls-12" points="171.38 41.8 98.41 41.8 98.41 130.02 98.41 131.53 171.38 131.53 171.38 41.8"/><polygon class="cls-15" points="156.35 58.09 151.9 54.22 147.45 58.09 147.45 41.8 156.35 41.8 156.35 58.09"/><polyline class="cls-7" points="106.59 139.8 180.22 139.8 180.22 51.72 171.38 43.81 171.38 41.8 98.41 41.8 98.41 131.53"/><line class="cls-7" x1="171.38" y1="131.53" x2="180.22" y2="139.8"/><line class="cls-7" x1="177.37" y1="125.76" x2="177.37" y2="72.52"/><line class="cls-7" x1="174.52" y1="81.17" x2="174.52" y2="50.07"/><line class="cls-7" x1="127.91" y1="135.67" x2="163.69" y2="135.67"/><polyline class="cls-7" points="177.37 49.17 182.68 49.22 182.68 142.67 109.25 142.67 98.41 131.53"/><path class="cls-12" d="M135.28,148.79h-84a14.15,14.15,0,1,0,0,28.3h84v-3.75s-7.14-8.07,0-20.63Z"/><path class="cls-13" d="M135.28,152.71H52a10.32,10.32,0,0,0,0,20.63h83.25S128.14,165.27,135.28,152.71Z"/><line class="cls-12" x1="132.13" y1="157.46" x2="80.81" y2="157.46"/><line class="cls-12" x1="65.96" y1="162.94" x2="51.4" y2="162.94"/><line class="cls-12" x1="110.98" y1="162.94" x2="70.8" y2="162.94"/><line class="cls-12" x1="98.55" y1="168.39" x2="55.82" y2="168.39"/><polygon class="cls-9" points="126.67 170.59 121.87 166.97 117.08 170.59 117.08 157.46 126.67 157.46 126.67 170.59"/><path class="cls-10" d="M51.25,148.79a14.15,14.15,0,1,0,0,28.3h84v-3.75H52a10.32,10.32,0,0,1,0-20.63h83.25v-3.92Z"/><path class="cls-12" d="M49.46,120.41h84a14.15,14.15,0,0,1,0,28.3h-84V145s7.14-8.07,0-20.63Z"/><path class="cls-13" d="M49.46,124.33H132.7a10.32,10.32,0,1,1,0,20.63H49.46S56.6,136.89,49.46,124.33Z"/><line class="cls-12" x1="52.61" y1="129.08" x2="103.93" y2="129.08"/><line class="cls-12" x1="118.78" y1="134.56" x2="133.34" y2="134.56"/><line class="cls-12" x1="73.76" y1="134.56" x2="113.94" y2="134.56"/><line class="cls-12" x1="86.19" y1="140.02" x2="128.91" y2="140.02"/><polygon class="cls-9" points="58.07 142.21 62.87 138.59 67.66 142.21 67.66 129.09 58.07 129.09 58.07 142.21"/><path class="cls-10" d="M133.49,120.41a14.15,14.15,0,0,1,0,28.3h-84V145H132.7a10.32,10.32,0,1,0,0-20.63H49.46v-3.92Z"/><path class="cls-5" d="M187.7,19.26a3.2,3.2,0,1,1-3.2-3.19A3.2,3.2,0,0,1,187.7,19.26Z"/><ellipse class="cls-1" cx="33.72" cy="213.48" rx="21.86" ry="3.17"/><path class="cls-7" d="M13.42,199.55H6.66A5.89,5.89,0,0,1,1,193.45v-8a5.89,5.89,0,0,1,5.66-6.1h4"/><path class="cls-5" d="M61.07,163.24c0,2.33-12.12,4.21-27.08,4.21S6.9,165.57,6.9,163.24,19,159,34,159,61.07,160.91,61.07,163.24Z"/><path class="cls-9" d="M27.24,213.7h13.5a58.45,58.45,0,0,0,11.86-1.63l7.5-48.67H60c0,2.24-11.66,4-26,4s-26-1.81-26-4H7.87l7.51,48.67A58.34,58.34,0,0,0,27.24,213.7Z"/><path class="cls-7" d="M34.93,155.21v-4.47a2.94,2.94,0,0,0-3-2.88H25A2.94,2.94,0,0,1,22,145h0a2.94,2.94,0,0,1,3-2.88H36.35a3,3,0,0,0,3-2.89v-.06a2.94,2.94,0,0,0-3-2.89H17.66a2.94,2.94,0,0,1-3-2.89v-.44a2.94,2.94,0,0,1,3-2.89h12.7"/><path class="cls-16" d="M296.44,1.06a19.52,19.52,0,0,0-16.27,27.5,2.54,2.54,0,0,1,.08,1.82l-1.93,6a1.51,1.51,0,0,0,1.8,1.92l5.61-1.41a2.51,2.51,0,0,1,1.95.28,19.53,19.53,0,1,0,8.76-36.07Z"/><path class="cls-6" d="M306.56,20.84a9.14,9.14,0,0,0,.22-1.47,5.06,5.06,0,0,0-8.94-3.23,5.05,5.05,0,0,0-8.72,4.7s.24.65.4.95a19.74,19.74,0,0,0,8.32,8.38,19.74,19.74,0,0,0,8.32-8.38C306.32,21.49,306.56,20.84,306.56,20.84Z"/></g></g></svg>