<svg xmlns="http://www.w3.org/2000/svg" xmlns:xlink="http://www.w3.org/1999/xlink" viewBox="0 0 2772.81 2757.53"><defs><style>.cls-1{isolation:isolate;}.cls-2{fill:#f4f7fa;}.cls-3{fill:url(#linear-gradient);}.cls-4{fill:url(#linear-gradient-2);}.cls-5{fill:url(#linear-gradient-3);}.cls-11,.cls-6{fill:#fff;}.cls-6{mix-blend-mode:soft-light;}.cls-7{fill:url(#linear-gradient-4);}.cls-8{fill:url(#linear-gradient-5);}.cls-9{fill:url(#linear-gradient-6);}.cls-10{fill:url(#linear-gradient-7);}.cls-12{fill:url(#linear-gradient-8);}.cls-13{fill:url(#linear-gradient-9);}.cls-14{opacity:0.3;mix-blend-mode:multiply;fill:url(#linear-gradient-10);}.cls-15{fill:url(#linear-gradient-11);}.cls-16{fill:url(#linear-gradient-12);}.cls-17{fill:url(#linear-gradient-13);}.cls-18{fill:url(#linear-gradient-14);}.cls-19{fill:url(#linear-gradient-15);}.cls-20{fill:url(#linear-gradient-16);}</style><linearGradient id="linear-gradient" x1="357.64" y1="1456.81" x2="1262.54" y2="1456.81" gradientUnits="userSpaceOnUse"><stop offset="0" stop-color="#ff9085"/><stop offset="1" stop-color="#fb6fbb"/></linearGradient><linearGradient id="linear-gradient-2" x1="1476.7" y1="1456.81" x2="2381.59" y2="1456.81" xlink:href="#linear-gradient"/><linearGradient id="linear-gradient-3" x1="1562.79" y1="471.53" x2="1454.52" y2="1330.96" gradientUnits="userSpaceOnUse"><stop offset="0" stop-color="#ffc444"/><stop offset="1" stop-color="#f36f56"/></linearGradient><linearGradient id="linear-gradient-4" x1="664.03" y1="1484.63" x2="609.89" y2="3447.09" xlink:href="#linear-gradient-3"/><linearGradient id="linear-gradient-5" x1="2107.77" y1="1524.46" x2="2053.64" y2="3486.93" xlink:href="#linear-gradient-3"/><linearGradient id="linear-gradient-6" x1="-1013.35" y1="35.11" x2="-1313.95" y2="866.78" gradientTransform="translate(2674.46 1384.23) rotate(36.55)" gradientUnits="userSpaceOnUse"><stop offset="0" stop-color="#444b8c"/><stop offset="1" stop-color="#26264f"/></linearGradient><linearGradient id="linear-gradient-7" x1="1313.6" y1="2283.11" x2="1300.92" y2="2533.64" gradientUnits="userSpaceOnUse"><stop offset="0" stop-color="#893976"/><stop offset="1" stop-color="#311944"/></linearGradient><linearGradient id="linear-gradient-8" x1="1380.41" y1="1221.1" x2="1387.12" y2="1539.67" gradientUnits="userSpaceOnUse"><stop offset="0" stop-color="#311944"/><stop offset="1" stop-color="#a03976"/></linearGradient><linearGradient id="linear-gradient-9" x1="1400.95" y1="2507.85" x2="2142.38" y2="2507.85" xlink:href="#linear-gradient-7"/><linearGradient id="linear-gradient-10" x1="1400.95" y1="2509.58" x2="2142.38" y2="2509.58" xlink:href="#linear-gradient-7"/><linearGradient id="linear-gradient-11" x1="1610.91" y1="2796.35" x2="1468.21" y2="2618.77" gradientUnits="userSpaceOnUse"><stop offset="0" stop-color="#aa80f9"/><stop offset="1" stop-color="#6165d7"/></linearGradient><linearGradient id="linear-gradient-12" x1="1523.3" y1="2754.18" x2="1326.68" y2="2506.82" xlink:href="#linear-gradient-3"/><linearGradient id="linear-gradient-13" x1="1100.01" y1="2499.56" x2="936.64" y2="2839.36" xlink:href="#linear-gradient-7"/><linearGradient id="linear-gradient-14" x1="1461.6" y1="1020.1" x2="1373.08" y2="1352.02" xlink:href="#linear-gradient-8"/><linearGradient id="linear-gradient-15" x1="540.62" y1="1878.38" x2="527.35" y2="1641.01" xlink:href="#linear-gradient-8"/><linearGradient id="linear-gradient-16" x1="2138.52" y1="1869.91" x2="2125.26" y2="1632.54" gradientTransform="matrix(-1, 0, 0, 1, 4381.85, 0)" xlink:href="#linear-gradient-8"/></defs><title>Illustration</title><g class="cls-1"><g id="图层_2" data-name="图层 2"><g id="Illustration"><path class="cls-2" d="M2115.75,171.38C2207.33,305.46,2096,520.12,2233,621.67c133.28,98.87,299.94-59.13,425.63,26.09,186.45,126.41,146.17,695.43-132.06,1046.32-83.68,105.52-153.09,146.19-184.91,266.19-68.32,257.67,160.62,413.79,115.4,541.11-101.82,286.68-1623.68,512.13-2224.21-359C-47.66,1735.56-84.13,1152,174.92,711.71,643-83.79,1910.26-129.48,2115.75,171.38Z"/><path class="cls-3" d="M540.11,340.76A39.23,39.23,0,0,0,486,357.05c-60.5,118.09-235.67,535.05-34,1089.48,239.62,658.68,797.73,1131.36,797.73,1131.36s40.26-548.7-22.08-933.64C1167.5,1272.69,867.47,524.17,540.11,340.76Z"/><path class="cls-4" d="M2199.13,340.76a39.23,39.23,0,0,1,54.12,16.29c60.5,118.09,235.67,535.05,34,1089.48-239.62,658.68-797.73,1131.36-797.73,1131.36s-40.26-548.7,22.08-933.64C1571.74,1272.69,1871.77,524.17,2199.13,340.76Z"/><path class="cls-5" d="M1375.12,2610.58C359.21,2624,972.48,648.17,1321.83,65.15c21.89-36.54,61.4-39.08,86.38-4.73C1776,566.3,2470.05,2596.16,1375.12,2610.58Z"/><path class="cls-6" d="M1377.37,2610.59c-873.8,11.51-346.32-1687.9-45.84-2189.36,18.83-31.43,52.82-33.62,74.3-4.07C1722.19,852.27,2319.13,2598.18,1377.37,2610.59Z"/><path class="cls-7" d="M3.75,1573.12a45,45,0,0,1,51.69-54.57c91.33,16.08,284.36,79.93,611.24,320C1152.57,2195.38,1291.87,2627,1291.87,2627S319.17,2925.25,3.75,1573.12Z"/><path class="cls-6" d="M270,1796.68a35.7,35.7,0,0,1,41-43.29c72.45,12.75,225.59,63.4,484.92,253.86,385.48,283.09,496,625.5,496,625.5S520.18,2869.39,270,1796.68Z"/><path class="cls-8" d="M2735.49,1573.12a45,45,0,0,0-51.7-54.57c-91.32,16.08-284.35,79.93-611.23,320C1586.67,2195.38,1447.37,2627,1447.37,2627S2420.07,2925.25,2735.49,1573.12Z"/><path class="cls-6" d="M2126,567.36A35.26,35.26,0,0,1,2174.59,582c54.38,106.13,211.8,480.86,30.53,979.13-215.35,592-716.93,1016.76-716.93,1016.76S1452,2084.76,1508,1738.82C1562.11,1404.89,1831.76,732.19,2126,567.36Z"/><path class="cls-6" d="M604.55,492.67a35.55,35.55,0,0,0-49,14.75c-54.79,107-213.44,484.59-30.76,986.73,217,596.56,722.49,1024.65,722.49,1024.65s36.46-497-20-845.58C1172.76,1336.7,901,658.79,604.55,492.67Z"/><path class="cls-6" d="M2492.47,1774.56a35.7,35.7,0,0,0-41-43.28c-72.45,12.75-225.59,63.4-484.92,253.86-385.48,283.09-496,625.5-496,625.5S2242.23,2847.28,2492.47,1774.56Z"/><path class="cls-9" d="M1622.25,1460.12c19.4-3,79-29.24,94.9-79.22,10.86-34.08-8.05-52.64,6.14-87.42,16.12-39.48,48.07-34.08,77.15-72.33,33.92-44.6,40.09-117.23,13.4-164.66-21.51-38.23-46.87-29-87.35-80.67-35.77-45.68-25-64.38-50.12-87.7-49-45.38-112.5,4.55-200-15.48-121.6-27.83-119.23-151.7-215.06-159.41-88.11-7.08-196.72,89.06-212.85,181.31-6.46,37,4,56.63-13.71,89-27.23,49.77-75.59,36.65-114.56,86.15-29.48,37.45-45.2,100.09-21.3,137.43,28,43.73,88.74,19,117,62,30.41,46.27-25,97.8,4.07,146.58,27.48,46.08,105.58,51.5,150.8,49.24,54.47-2.72,107.36-18.53,161.2-27.29C1431.83,1421.37,1524.17,1475.2,1622.25,1460.12Z"/><polygon class="cls-10" points="1300.23 2475.41 1892.01 2327.39 1921.61 2471.16 1379.85 2721.2 950.89 2615.24 692.12 2361.16 1300.23 2475.41"/><path class="cls-11" d="M1865.89,1722.62c19.84-48.24-116.23-180.36-286.82-229.22-123.84-35.47-228.81-15.68-283.42-6-177.15,31.27-287.47,119.83-329,157.05,34,18.45,127.84,74.73,174.31,181.51,44.93,103.22,12.81,198.07-3.91,253.17-14.57,48-36.72,120.93-102.21,173.72-34.58,27.86-72.8,42-149.22,70.31-90.13,33.37-146,42.59-145.6,60.64.52,23,92.06,41.79,88.86,56.14-.23,1.07-.9,1.15-1,1.93-1.23,10,101.6,34.63,231.56,54.17,152,22.86,228,34.29,300.58,21.87,113.24-19.37,94.19-54.24,207.68-73.78,132-22.73,192,18.57,311.52-27.33,20.13-7.73,100.68-38.79,98.37-71.05-2.86-39.87-135.73-26.25-251.4-128.43-50.94-45-75.6-92.19-84.13-109.9-11-22.91-57.3-141.29-10.88-270.19a81.16,81.16,0,0,1,7.83-16.12C1695.16,1725.16,1847.16,1768.16,1865.89,1722.62Z"/><path class="cls-12" d="M1368.37,1350.92s-11.3,90.32-44.64,111-87.23,47.71-93.17,55,206.52,30.17,311.81-23h0c-34.7-7.23-44.13-9.9-44.13-9.9-9.42-2.66-27-7.61-44.6-17.64-12-6.83-31.3-20.16-49-45.34l.39-50Z"/><path class="cls-13" d="M1401,2674.41c117.62-63,204.49-127.28,263.45-175.82,116-95.52,169.23-167.57,286.68-196.05,21-5.08,140.58-34.07,179.17,19,42.73,58.8-40.34,181.75-50.43,196.69-150.05,222.1-532.17,211.74-652,204.53Z"/><path class="cls-14" d="M2130.25,2321.57c-11.28-15.52-29.55-23.89-50.18-28,6.87,23.77,7.49,46.08-1.08,65.57-23.45,53.26-92.88,36.85-141.65,99.36-47.9,61.39-14.74,120.56-57.08,145.88-48.53,29-108.69-38.78-160.68-6.35-35.34,22.06-24.35,63.89-65.53,86.68-28.47,15.75-56.37,8.3-88.8,4.23-37.16-4.67-88.08-5.67-152,7.68l14.55,26.21c119.85,7.21,502,17.57,652-204.53C2089.91,2503.32,2173,2380.37,2130.25,2321.57Z"/><path class="cls-15" d="M1489.87,2707.6s21.56-15.45,52.83-4.92,80.93,19,80.86,34.32-49.76,24.86-84.1,18.58C1506.62,2749.57,1480.79,2721,1489.87,2707.6Z"/><path class="cls-16" d="M1458.29,2681.5l57.56,18.52s9.35,15.57-3.27,25.45-56.47-11-56.47-11Z"/><path class="cls-17" d="M658.29,2416.18c-17,99,196.55,206,245.44,230.49,99.63,49.94,287.1,120.43,565.33,93.5l11.1-66.6a1316.92,1316.92,0,0,1-154.43-64.14c-107.87-53.07-148.83-91-298.51-181.45C861.59,2327.84,813.35,2315,764,2327.39,721.8,2338,666.19,2370.2,658.29,2416.18Z"/><path class="cls-18" d="M1469.68,1299c0,65.21-37.28,128.41-83.28,128.41s-83.28-63.2-83.28-128.41,37.29-72.08,83.28-72.08S1469.68,1233.76,1469.68,1299Z"/><path class="cls-11" d="M526.42,1709.81S545.62,1966.13,740,2017s473-207.88,473-207.88-174.35-206.64-246.4-164.69-184.82,274.6-387.16,65.4Z"/><path class="cls-19" d="M525.72,1713s69.78,12.64,86.38-27.38-6.46-76.73-19.38-72.52-4.94,31.13-7.53,47-35.84,30.59-44.74,17.42S531.73,1637,562.22,1625s23.68-18.59,5.3-24.31-36.56,3.55-48.67,25-52.52-63.46-57.49-86.1S374.88,1626.45,525.72,1713Z"/><path class="cls-11" d="M2257.52,1701.34s-19.21,256.32-213.6,307.17-473-207.88-473-207.88,174.35-206.64,246.39-164.69,184.83,274.6,387.17,65.4Z"/><path class="cls-20" d="M2258.22,1704.53s-69.78,12.65-86.39-27.38,6.47-76.73,19.39-72.52,4.94,31.13,7.53,47,35.84,30.59,44.74,17.42,8.72-40.53-21.77-52.47-23.68-18.59-5.3-24.3,36.55,3.55,48.67,25,52.52-63.46,57.49-86.1S2409.06,1618,2258.22,1704.53Z"/></g></g></g></svg>